<?xml version="1.0" encoding="UTF-8" standalone="no"?>
<svg
   xmlns:dc="http://purl.org/dc/elements/1.1/"
   xmlns:cc="http://creativecommons.org/ns#"
   xmlns:rdf="http://www.w3.org/1999/02/22-rdf-syntax-ns#"
   xmlns:svg="http://www.w3.org/2000/svg"
   xmlns="http://www.w3.org/2000/svg"
   viewBox="0 0 1812.0267 502.78668"
   height="502.78668"
   width="1812.0267"
   xml:space="preserve"
   id="svg2"
   version="1.1"><metadata
     id="metadata8"><rdf:RDF><cc:Work
         rdf:about=""><dc:format>image/svg+xml</dc:format><dc:type
           rdf:resource="http://purl.org/dc/dcmitype/StillImage" /></cc:Work></rdf:RDF></metadata><defs
     id="defs6" /><g
     transform="matrix(1.3333333,0,0,-1.3333333,0,502.78667)"
     id="g10"><g
       transform="scale(0.1)"
       id="g12"><path
         id="path14"
         style="fill:#247235;fill-opacity:1;fill-rule:nonzero;stroke:none"
         d="m 1956.13,2711.32 v -0.27 c -85.11,-26.93 -170.22,-59.79 -253.17,-98.03 -134.93,333.16 -360.09,620.26 -645.04,830.6 77.3,57.37 158.9,108.81 244.55,154.06 286.56,-233.78 513.34,-537.85 653.66,-886.36" /><path
         id="path16"
         style="fill:#2a8f3d;fill-opacity:1;fill-rule:nonzero;stroke:none"
         d="m 1302.47,3597.68 c -85.65,-45.25 -167.25,-96.69 -244.55,-154.06 -77.295,57.37 -158.9,109.08 -244.549,154.06 77.297,63.02 159.176,120.93 244.549,173.18 85.38,-52.25 167.25,-110.16 244.55,-173.18" /><path
         id="path18"
         style="fill:#2a8f3d;fill-opacity:1;fill-rule:nonzero;stroke:none"
         d="m 271.484,1885.57 c 0,-348.78 92.11,-676.02 253.704,-958.808 C 495.836,794.25 478.863,657.16 475.367,516.84 177.758,893.09 0,1368.73 0,1885.57 0,2576.12 317,3192.61 813.371,3597.68 899.02,3552.7 980.625,3500.99 1057.92,3443.62 580.941,3090.81 271.484,2524.41 271.484,1885.57" /><path
         id="path20"
         style="fill:#8acf25;fill-opacity:1;fill-rule:nonzero;stroke:none"
         d="m 2077.6,2295.48 c -88.88,-29.09 -174.8,-64.64 -257.21,-105.84 -14.28,92.65 -35.56,183.14 -62.76,270.94 81.88,37.98 166.45,71.1 253.44,98.58 27.47,-85.65 49.83,-173.72 66.53,-263.68" /><path
         id="path22"
         style="fill:#5bc134;fill-opacity:1;fill-rule:nonzero;stroke:none"
         d="m 751.969,608.68 c -4.047,-50.629 -6.199,-102.071 -6.199,-153.782 0,-80.257 4.847,-159.168 14.546,-236.738 -103.961,90.219 -199.574,190.141 -284.949,298.68 3.496,140.32 20.469,277.41 49.821,409.922 136.55,628.068 540.272,1156.218 1086.202,1459.218 21.28,-73.26 37.97,-147.6 49.29,-220.85 l 9.15,-59.26 C 1156.49,1790.76 801.52,1242.68 751.969,608.68" /><path
         id="path24"
         style="fill:#247235;fill-opacity:1;fill-rule:nonzero;stroke:none"
         d="M 1302.2,173.18 C 1224.9,110.16 1143.3,52.25 1057.92,0 972.547,52.25 890.938,110.16 813.641,173.18 c 85.379,45.25 166.984,96.691 244.279,154.05 77.03,-57.359 158.9,-108.8 244.28,-154.05" /><path
         id="path26"
         style="fill:#247235;fill-opacity:1;fill-rule:nonzero;stroke:none"
         d="m 2115.84,1885.57 c 0,-628.62 -262.86,-1196.09 -684.36,-1598.199 l -53.6,28.551 c -66.25,35.019 -130.08,74.34 -189.87,116.617 402.37,354.441 656.35,873.971 656.35,1453.031 0,44.7 -1.62,89.14 -4.58,133.04 l 52.79,26.4 c 67.87,33.93 138.16,63.56 209.26,88.34 9.43,-81.34 14.01,-164.03 14.01,-247.78" /><path
         id="path28"
         style="fill:#245628;fill-opacity:1;fill-rule:nonzero;stroke:none"
         d="m 3360.34,2126.77 c -5.95,-17.2 -14.66,-40.63 -26.13,-70.23 -11.45,-29.62 -24.49,-63.84 -39.13,-102.66 -14.64,-38.81 -31.02,-81.56 -49.1,-128.23 -18.09,-46.67 -36.47,-95.61 -55.14,-146.82 h 338.81 c -18.14,51.37 -35.68,100.47 -52.68,147.28 -16.99,46.8 -33.15,89.62 -48.42,128.46 -15.32,38.82 -28.72,73.02 -40.27,102.61 -11.54,29.58 -20.86,52.76 -27.94,69.59 z m 320.43,-916.4 c -13.19,41.17 -27.35,83.46 -42.53,126.84 -15.16,43.39 -30.29,86.61 -45.33,129.62 h -462.74 c -14.95,-43.22 -29.97,-86.53 -44.98,-129.96 -15.04,-43.44 -29.05,-85.63 -42,-126.5 h -276.97 c 44.58,127.64 86.88,245.61 126.89,353.91 40.02,108.28 79.16,210.29 117.47,306.04 38.3,95.74 76.02,186.62 113.18,272.69 37.16,86.05 75.76,170.12 115.78,252.19 h 252.82 c 38.92,-82.07 77.29,-166.14 115.08,-252.19 37.78,-86.07 75.87,-176.95 114.23,-272.69 38.37,-95.75 77.58,-197.76 117.66,-306.04 40.07,-108.3 82.43,-226.27 127.1,-353.91 h -285.66" /><path
         id="path30"
         style="fill:#245628;fill-opacity:1;fill-rule:nonzero;stroke:none"
         d="m 4299.83,1689.09 c 0,-142.5 57.54,-213.72 172.68,-213.72 26.2,0 50.7,3.43 73.52,10.27 22.78,6.83 42.15,14.79 58.13,23.93 v 406.91 c -12.56,2.27 -27.36,4.27 -44.45,5.98 -17.1,1.71 -37.06,2.57 -59.85,2.57 -67.26,0 -117.41,-22.23 -150.44,-66.68 -33.08,-44.45 -49.59,-100.87 -49.59,-169.26 z m 559.07,-365.87 c 0,-147.04 -37.35,-256.17 -111.98,-327.419 -74.67,-71.219 -190.07,-106.852 -346.22,-106.852 -54.71,0 -109.42,4.86 -164.13,14.531 -54.71,9.7 -105.44,22.52 -152.16,38.469 l 44.45,213.721 c 39.88,-15.95 81.78,-28.48 125.66,-37.62 43.87,-9.11 93.74,-13.68 149.6,-13.68 72.93,0 124.51,15.97 154.73,47.88 30.18,31.91 45.31,72.92 45.31,123.09 v 32.48 c -27.36,-12.55 -55.57,-21.95 -84.64,-28.21 -29.06,-6.27 -60.69,-9.39 -94.88,-9.39 -124.25,0 -219.43,36.75 -285.52,110.27 -66.12,73.52 -99.17,176.37 -99.17,308.6 0,66.09 10.27,126.22 30.78,180.38 20.52,54.12 50.43,100.57 89.76,139.34 39.33,38.73 87.46,68.65 144.47,89.75 56.98,21.08 121.39,31.63 193.2,31.63 30.77,0 62.4,-1.44 94.89,-4.27 32.48,-2.86 64.67,-6.57 96.59,-11.11 31.89,-4.57 62.4,-9.99 91.47,-16.25 29.07,-6.27 54.98,-12.82 77.79,-19.66 v -755.68" /><path
         id="path32"
         style="fill:#245628;fill-opacity:1;fill-rule:nonzero;stroke:none"
         d="m 5640.23,1884 c -22.82,5.68 -49.58,11.67 -80.36,17.95 -30.77,6.25 -63.84,9.4 -99.16,9.4 -15.97,0 -35.04,-1.44 -57.27,-4.27 -22.23,-2.86 -39.06,-5.99 -50.44,-9.41 v -687.3 h -254.75 v 851.43 c 45.58,15.95 99.44,31.04 161.58,45.31 62.1,14.24 131.34,21.37 207.72,21.37 13.68,0 30.19,-0.85 49.58,-2.56 19.37,-1.71 38.74,-4.01 58.13,-6.84 19.37,-2.86 38.74,-6.28 58.13,-10.26 19.37,-4 35.91,-8.84 49.58,-14.53 L 5640.23,1884" /><path
         id="path34"
         style="fill:#245628;fill-opacity:1;fill-rule:nonzero;stroke:none"
         d="m 6383.96,1661.74 c 0,78.64 -15.69,140.46 -47.02,185.5 -31.36,45.01 -76.08,67.53 -134.21,67.53 -58.13,0 -103.17,-22.52 -135.06,-67.53 -31.93,-45.04 -47.88,-106.86 -47.88,-185.5 0,-78.65 15.95,-141.05 47.88,-187.22 31.89,-46.16 76.93,-69.24 135.06,-69.24 58.13,0 102.85,23.08 134.21,69.24 31.33,46.17 47.02,108.57 47.02,187.22 z m 259.87,0 c 0,-70.69 -10.25,-135.37 -30.77,-194.05 -20.52,-58.72 -50.17,-108.87 -88.91,-150.46 -38.76,-41.62 -85.21,-73.81 -139.33,-96.6 -54.15,-22.79 -114.85,-34.19 -182.09,-34.19 -66.12,0 -126.25,11.4 -180.38,34.19 -54.15,22.79 -100.6,54.98 -139.33,96.6 -38.77,41.59 -68.99,91.74 -90.62,150.46 -21.67,58.68 -32.49,123.36 -32.49,194.05 0,70.65 11.12,135.06 33.34,193.19 22.23,58.13 53.01,107.71 92.33,148.74 39.32,41.04 86.04,72.93 140.19,95.75 54.12,22.78 113.11,34.19 176.96,34.19 64.97,0 124.52,-11.41 178.66,-34.19 54.13,-22.82 100.58,-54.71 139.34,-95.75 38.73,-41.03 68.95,-90.61 90.62,-148.74 21.64,-58.13 32.48,-122.54 32.48,-193.19" /><path
         id="path36"
         style="fill:#245628;fill-opacity:1;fill-rule:nonzero;stroke:none"
         d="m 7211.7,1210.37 c -47.18,99.51 -93.68,202.79 -139.55,309.84 -45.9,107.01 -89.46,212.9 -130.74,317.68 -41.3,104.74 -79.23,205.03 -113.85,300.82 -34.63,95.8 -64.54,181.29 -89.71,256.49 h 294.07 c 22.17,-68.61 46.83,-142.47 73.97,-221.55 27.14,-79.09 54.81,-157.93 82.98,-236.47 28.15,-78.56 55.14,-153.82 80.94,-225.79 25.81,-71.96 50.51,-134.1 74.13,-186.43 22.25,51.99 46.59,113.96 72.99,185.93 26.38,71.94 53.69,147.19 81.84,225.76 28.16,78.54 55.78,157.37 82.92,236.47 27.15,79.07 51.86,153.1 74.13,222.08 h 283.95 c -26.56,-75.58 -57.08,-161.17 -91.62,-256.75 -34.56,-95.61 -72.33,-195.85 -113.35,-300.7 -41.04,-104.88 -84.32,-210.88 -129.89,-318.03 -45.57,-107.15 -91.87,-210.26 -138.83,-309.35 H 7211.7" /><path
         id="path38"
         style="fill:#245628;fill-opacity:1;fill-rule:nonzero;stroke:none"
         d="m 8329.56,1210.37 h -254.74 v 899.31 h 254.74 z m 23.94,1159.18 c 0,-46.75 -15.12,-83.51 -45.31,-110.28 -30.21,-26.79 -65.83,-40.17 -106.85,-40.17 -41.04,0 -76.67,13.38 -106.87,40.17 -30.2,26.77 -45.3,63.53 -45.3,110.28 0,46.72 15.1,83.48 45.3,110.28 30.2,26.76 65.83,40.17 106.87,40.17 41.02,0 76.64,-13.41 106.85,-40.17 30.19,-26.8 45.31,-63.56 45.31,-110.28" /><path
         id="path40"
         style="fill:#245628;fill-opacity:1;fill-rule:nonzero;stroke:none"
         d="m 8827.05,1393.31 c 46.73,0 79.77,4.54 99.16,13.67 19.38,9.12 29.07,26.77 29.07,53.01 0,20.52 -12.55,38.47 -37.61,53.86 -25.09,15.38 -63.26,32.74 -114.55,52.14 -39.92,14.8 -76.09,30.19 -108.57,46.17 -32.48,15.94 -60.13,35.04 -82.92,57.27 -22.81,22.22 -40.47,48.73 -53,79.5 -12.55,30.77 -18.8,67.8 -18.8,111.13 0,84.34 31.33,151.02 94.03,200.03 62.66,49 148.74,73.52 258.16,73.52 54.71,0 107.12,-4.86 157.3,-14.53 50.13,-9.7 90.02,-20.25 119.68,-31.63 l -44.46,-198.33 c -29.65,10.26 -61.84,19.37 -96.6,27.36 -34.77,7.96 -73.81,11.97 -117.11,11.97 -79.79,0 -119.68,-22.23 -119.68,-66.68 0,-10.26 1.71,-19.39 5.13,-27.35 3.42,-7.99 10.25,-15.69 20.52,-23.08 10.25,-7.43 24.2,-15.45 41.88,-24.05 17.66,-8.63 40.18,-18.11 67.53,-28.43 55.84,-20.7 102,-41.1 138.49,-61.2 36.46,-20.11 65.24,-41.83 86.35,-65.12 21.07,-23.32 35.89,-49.21 44.45,-77.64 8.54,-28.42 12.82,-61.41 12.82,-98.92 0,-88.71 -33.34,-155.82 -100.02,-201.32 -66.68,-45.46 -161,-68.22 -282.96,-68.22 -79.79,0 -146.18,6.83 -199.18,20.52 -52.99,13.67 -89.75,25.05 -110.27,34.18 l 42.74,206.88 c 43.3,-17.1 87.76,-30.51 133.35,-40.18 45.58,-9.69 90.62,-14.53 135.07,-14.53" /><path
         id="path42"
         style="fill:#245628;fill-opacity:1;fill-rule:nonzero;stroke:none"
         d="m 9652.81,1210.37 h -254.74 v 899.31 h 254.74 z m 23.94,1159.18 c 0,-46.75 -15.12,-83.51 -45.3,-110.28 -30.22,-26.79 -65.83,-40.17 -106.86,-40.17 -41.03,0 -76.67,13.38 -106.86,40.17 -30.21,26.77 -45.31,63.53 -45.31,110.28 0,46.72 15.1,83.48 45.31,110.28 30.19,26.76 65.83,40.17 106.86,40.17 41.03,0 76.64,-13.41 106.86,-40.17 30.18,-26.8 45.3,-63.56 45.3,-110.28" /><path
         id="path44"
         style="fill:#245628;fill-opacity:1;fill-rule:nonzero;stroke:none"
         d="m 10473.4,1661.74 c 0,78.64 -15.6,140.46 -47,185.5 -31.3,45.01 -76,67.53 -134.2,67.53 -58.1,0 -103.1,-22.52 -135,-67.53 -32,-45.04 -47.9,-106.86 -47.9,-185.5 0,-78.65 15.9,-141.05 47.9,-187.22 31.9,-46.16 76.9,-69.24 135,-69.24 58.2,0 102.9,23.08 134.2,69.24 31.4,46.17 47,108.57 47,187.22 z m 259.9,0 c 0,-70.69 -10.2,-135.37 -30.7,-194.05 -20.6,-58.72 -50.2,-108.87 -89,-150.46 -38.7,-41.62 -85.2,-73.81 -139.3,-96.6 -54.1,-22.79 -114.8,-34.19 -182.1,-34.19 -66.1,0 -126.2,11.4 -180.4,34.19 -54.1,22.79 -100.6,54.98 -139.29,96.6 -38.77,41.59 -68.98,91.74 -90.61,150.46 -21.67,58.68 -32.49,123.36 -32.49,194.05 0,70.65 11.11,135.06 33.34,193.19 22.22,58.13 53,107.71 92.32,148.74 39.33,41.04 86.03,72.93 140.23,95.75 54.1,22.78 113.1,34.19 176.9,34.19 65,0 124.5,-11.41 178.7,-34.19 54.1,-22.82 100.6,-54.71 139.3,-95.75 38.8,-41.03 69,-90.61 90.6,-148.74 21.7,-58.13 32.5,-122.54 32.5,-193.19" /><path
         id="path46"
         style="fill:#245628;fill-opacity:1;fill-rule:nonzero;stroke:none"
         d="m 10929.9,2078.9 c 43.3,12.53 99.2,24.2 167.6,35.05 68.4,10.82 140.2,16.24 215.4,16.24 76.4,0 139.9,-9.99 190.6,-29.92 50.7,-19.95 90.9,-48.16 120.6,-84.63 29.6,-36.49 50.7,-79.79 63.2,-129.93 12.6,-50.18 18.8,-106.01 18.8,-167.55 v -507.79 h -254.7 v 477.01 c 0,82.07 -10.9,140.2 -32.5,174.39 -21.7,34.19 -62.1,51.29 -121.4,51.29 -18.2,0 -37.6,-0.86 -58.1,-2.56 -20.5,-1.71 -38.8,-3.72 -54.7,-5.99 v -694.14 h -254.8 v 868.53" /><path
         id="path48"
         style="fill:#245628;fill-opacity:1;fill-rule:nonzero;stroke:none"
         d="m 11954,2395.2 h 266.7 V 1210.37 H 11954 V 2395.2" /><path
         id="path50"
         style="fill:#245628;fill-opacity:1;fill-rule:nonzero;stroke:none"
         d="m 12968.7,2126.77 c -5.9,-17.2 -14.6,-40.63 -26.1,-70.23 -11.5,-29.62 -24.5,-63.84 -39.1,-102.66 -14.7,-38.81 -31.1,-81.56 -49.1,-128.23 -18.1,-46.67 -36.5,-95.61 -55.2,-146.82 h 338.8 c -18.1,51.37 -35.7,100.47 -52.6,147.28 -17,46.8 -33.2,89.62 -48.5,128.46 -15.3,38.82 -28.7,73.02 -40.2,102.61 -11.6,29.58 -20.9,52.76 -28,69.59 z m 320.5,-916.4 c -13.2,41.17 -27.4,83.46 -42.6,126.84 -15.1,43.39 -30.3,86.61 -45.3,129.62 h -462.8 c -14.9,-43.22 -29.9,-86.53 -44.9,-129.96 -15.1,-43.44 -29.1,-85.63 -42,-126.5 h -277 c 44.6,127.64 86.9,245.61 126.9,353.91 40,108.28 79.1,210.29 117.5,306.04 38.3,95.74 76,186.62 113.1,272.69 37.2,86.05 75.8,170.12 115.8,252.19 h 252.8 c 39,-82.07 77.3,-166.14 115.1,-252.19 37.8,-86.07 75.9,-176.95 114.3,-272.69 38.3,-95.75 77.5,-197.76 117.6,-306.04 40.1,-108.3 82.4,-226.27 127.1,-353.91 h -285.6" /></g></g></svg>