<svg id="svg" version="1.1" xmlns="http://www.w3.org/2000/svg" xmlns:xlink="http://www.w3.org/1999/xlink" width="50" height="50" viewBox="0, 0, 400,400"><g id="svgg"><path id="path0" d="M194.141 53.032 C 109.929 109.676,90.131 223.154,150.152 305.162 C 153.507 309.746,153.515 309.748,153.517 305.957 C 153.520 300.184,155.130 286.928,156.780 279.102 L 157.274 276.758 154.435 271.287 C 120.376 205.655,137.479 125.428,195.454 78.879 C 197.844 76.959,199.929 75.433,200.087 75.487 C 202.249 76.230,217.084 89.627,222.617 95.833 C 234.636 109.315,246.945 128.668,251.123 140.653 L 251.518 141.786 254.763 140.379 C 258.344 138.827,266.634 135.642,269.805 134.601 C 272.134 133.837,272.161 134.461,269.540 128.516 C 256.005 97.814,233.070 70.844,204.640 52.196 C 199.213 48.637,200.872 48.505,194.141 53.032 M277.734 182.372 C 274.619 183.626,269.989 185.698,267.445 186.976 L 262.819 189.300 262.713 200.802 C 262.318 243.526,246.421 281.051,216.106 310.820 L 210.458 316.366 214.311 318.888 C 216.430 320.275,220.772 322.859,223.960 324.629 L 229.756 327.848 233.850 323.787 C 267.829 290.092,286.957 240.127,284.381 191.797 C 284.146 187.393,283.829 182.957,283.676 181.940 L 283.398 180.091 277.734 182.372 M199.443 324.953 C 199.064 325.566,189.667 331.703,184.872 334.468 L 180.487 336.998 183.700 339.524 C 187.567 342.563,193.750 346.944,197.363 349.203 L 200.000 350.851 202.637 349.203 C 206.248 346.945,212.433 342.564,216.294 339.528 L 219.502 337.006 214.070 333.834 C 211.083 332.089,206.739 329.344,204.417 327.733 C 199.493 324.317,199.748 324.460,199.443 324.953 " stroke="none" fill="#1c8f04" fill-rule="evenodd"></path><path id="path1" d="M185.742 0.242 C 162.465 2.500,146.664 5.983,128.906 12.771 C 39.090 47.099,-13.285 139.033,2.735 234.238 C 20.977 342.649,124.705 415.695,234.238 397.265 C 342.649 379.023,415.695 275.295,397.265 165.762 C 382.561 78.376,311.683 11.701,222.070 0.954 C 216.899 0.334,190.191 -0.190,185.742 0.242 M204.439 51.809 C 230.667 68.969,252.203 93.121,266.194 121.064 C 269.510 127.686,272.005 133.630,271.611 133.970 C 271.434 134.123,269.180 134.997,266.602 135.914 C 264.023 136.830,259.581 138.554,256.730 139.745 C 253.878 140.936,251.495 141.840,251.433 141.756 C 251.371 141.671,250.383 139.449,249.237 136.818 C 240.193 116.052,223.628 94.381,205.943 80.178 C 199.259 74.810,200.679 74.707,192.931 81.122 C 137.148 127.302,120.997 209.210,155.216 272.390 L 157.293 276.225 158.769 270.437 C 170.256 225.398,199.597 186.297,239.861 162.372 C 244.274 159.749,244.388 159.732,244.892 161.621 C 246.497 167.627,248.256 176.353,248.941 181.699 C 248.996 182.133,247.298 183.497,243.750 185.868 C 196.308 217.571,169.337 275.460,176.039 331.198 C 176.387 334.091,176.077 333.879,167.635 325.462 C 87.966 246.027,100.718 115.737,194.336 52.646 C 200.406 48.555,199.571 48.624,204.439 51.809 M277.430 149.809 C 278.548 153.411,281.128 164.222,281.329 166.147 C 281.442 167.223,281.325 167.299,277.344 168.730 C 272.689 170.402,266.487 172.999,263.222 174.643 L 261.014 175.754 260.362 172.154 C 259.623 168.074,257.830 160.457,256.693 156.569 L 255.930 153.959 260.094 152.127 C 265.191 149.885,275.443 146.081,275.972 146.237 C 276.184 146.300,276.840 147.907,277.430 149.809 M283.774 181.348 C 284.294 184.402,284.766 193.261,284.766 199.979 C 284.766 242.496,269.687 283.044,241.833 315.426 C 237.038 321.001,230.463 327.734,229.813 327.734 C 228.805 327.734,221.180 323.444,214.379 319.050 L 210.203 316.352 215.702 311.008 C 247.235 280.365,264.076 238.597,262.591 194.716 L 262.405 189.236 268.605 186.260 C 273.721 183.805,277.819 182.053,282.422 180.356 C 283.450 179.977,283.554 180.053,283.774 181.348 M203.378 326.848 C 206.560 329.111,213.212 333.282,216.895 335.324 C 218.345 336.128,219.530 336.903,219.529 337.045 C 219.523 337.811,201.082 350.781,200.000 350.781 C 198.938 350.781,180.478 337.816,180.471 337.065 C 180.470 336.934,182.622 335.582,185.254 334.062 C 187.886 332.542,192.236 329.798,194.922 327.966 C 197.607 326.133,200.006 324.704,200.253 324.789 C 200.499 324.875,201.905 325.801,203.378 326.848 " stroke="none" fill="#fbfbfb" fill-rule="evenodd"></path><path id="path2" d="M217.383 90.625 C 218.222 91.484,218.996 92.188,219.104 92.188 C 219.211 92.188,218.613 91.484,217.773 90.625 C 216.934 89.766,216.160 89.063,216.052 89.063 C 215.945 89.063,216.544 89.766,217.383 90.625 M269.922 148.209 C 266.807 149.357,262.384 151.120,260.094 152.127 L 255.930 153.959 256.693 156.569 C 257.830 160.457,259.623 168.074,260.362 172.154 L 261.014 175.754 263.222 174.643 C 266.487 172.999,272.689 170.402,277.344 168.730 C 282.165 166.997,281.898 168.014,279.858 159.153 C 278.256 152.194,276.512 146.396,275.972 146.237 C 275.760 146.175,273.037 147.062,269.922 148.209 M204.875 189.551 L 200.977 193.555 204.980 189.656 C 207.183 187.511,208.984 185.710,208.984 185.652 C 208.984 185.369,208.497 185.832,204.875 189.551 M115.325 191.797 C 115.325 192.549,115.405 192.856,115.504 192.480 C 115.602 192.104,115.602 191.489,115.504 191.113 C 115.405 190.737,115.325 191.045,115.325 191.797 M137.226 196.094 C 137.226 197.275,137.300 197.759,137.389 197.168 C 137.479 196.577,137.479 195.610,137.389 195.020 C 137.300 194.429,137.226 194.912,137.226 196.094 M262.617 196.094 C 262.617 197.275,262.690 197.759,262.780 197.168 C 262.869 196.577,262.869 195.610,262.780 195.020 C 262.690 194.429,262.617 194.912,262.617 196.094 M220.109 205.176 L 216.602 208.789 220.215 205.282 C 223.571 202.024,224.006 201.563,223.722 201.563 C 223.664 201.563,222.038 203.188,220.109 205.176 M137.226 203.906 C 137.226 205.088,137.300 205.571,137.389 204.980 C 137.479 204.390,137.479 203.423,137.389 202.832 C 137.300 202.241,137.226 202.725,137.226 203.906 M262.617 203.906 C 262.617 205.088,262.690 205.571,262.780 204.980 C 262.869 204.390,262.869 203.423,262.780 202.832 C 262.690 202.241,262.617 202.725,262.617 203.906 M115.325 208.203 C 115.325 208.955,115.405 209.263,115.504 208.887 C 115.602 208.511,115.602 207.896,115.504 207.520 C 115.405 207.144,115.325 207.451,115.325 208.203 M284.466 208.203 C 284.466 208.955,284.546 209.263,284.644 208.887 C 284.743 208.511,284.743 207.896,284.644 207.520 C 284.546 207.144,284.466 207.451,284.466 208.203 M175.481 301.563 C 175.481 302.314,175.562 302.622,175.660 302.246 C 175.758 301.870,175.758 301.255,175.660 300.879 C 175.562 300.503,175.481 300.811,175.481 301.563 M175.121 308.008 C 175.123 309.297,175.196 309.777,175.283 309.075 C 175.370 308.373,175.368 307.318,175.279 306.731 C 175.190 306.144,175.119 306.719,175.121 308.008 M175.125 321.094 C 175.125 322.490,175.196 323.062,175.283 322.363 C 175.369 321.665,175.369 320.522,175.283 319.824 C 175.196 319.126,175.125 319.697,175.125 321.094 M166.797 324.805 C 169.261 327.275,171.364 329.297,171.472 329.297 C 171.579 329.297,169.651 327.275,167.188 324.805 C 164.724 322.334,162.620 320.313,162.513 320.313 C 162.405 320.313,164.333 322.334,166.797 324.805 M175.481 327.344 C 175.481 328.096,175.562 328.403,175.660 328.027 C 175.758 327.651,175.758 327.036,175.660 326.660 C 175.562 326.284,175.481 326.592,175.481 327.344 " stroke="none" fill="#93db0b" fill-rule="evenodd"></path><path id="path3" d="M284.481 194.141 C 284.481 195.107,284.558 195.503,284.651 195.020 C 284.744 194.536,284.744 193.745,284.651 193.262 C 284.558 192.778,284.481 193.174,284.481 194.141 M115.333 194.336 C 115.337 195.195,115.417 195.501,115.511 195.015 C 115.604 194.529,115.601 193.826,115.503 193.452 C 115.405 193.079,115.329 193.477,115.333 194.336 M115.333 205.664 C 115.337 206.523,115.417 206.829,115.511 206.343 C 115.604 205.857,115.601 205.154,115.503 204.781 C 115.405 204.407,115.329 204.805,115.333 205.664 M284.474 205.664 C 284.478 206.523,284.558 206.829,284.651 206.343 C 284.745 205.857,284.741 205.154,284.643 204.781 C 284.546 204.407,284.469 204.805,284.474 205.664 " stroke="none" fill="#84bc84" fill-rule="evenodd"></path><path id="path4" d="M166.983 75.098 L 163.867 78.320 167.090 75.204 C 170.083 72.311,170.491 71.875,170.206 71.875 C 170.147 71.875,168.697 73.325,166.983 75.098 M232.617 75.000 C 234.326 76.719,235.812 78.125,235.919 78.125 C 236.027 78.125,234.716 76.719,233.008 75.000 C 231.299 73.281,229.813 71.875,229.706 71.875 C 229.598 71.875,230.909 73.281,232.617 75.000 M184.546 88.379 L 183.398 89.648 184.668 88.501 C 185.851 87.432,186.117 87.109,185.815 87.109 C 185.748 87.109,185.177 87.681,184.546 88.379 M180.057 92.871 L 178.711 94.336 180.176 92.990 C 180.981 92.249,181.641 91.590,181.641 91.525 C 181.641 91.227,181.310 91.508,180.057 92.871 M239.832 162.630 C 199.041 187.136,169.126 227.421,158.564 272.070 C 158.056 274.219,157.547 276.064,157.433 276.172 C 157.320 276.279,157.188 276.631,157.142 276.953 C 157.095 277.275,156.625 279.912,156.097 282.813 C 154.768 290.110,153.916 297.246,153.594 303.787 L 153.320 309.332 156.809 313.553 C 159.978 317.388,175.684 333.469,175.943 333.144 C 176.003 333.069,175.910 331.865,175.737 330.469 C 168.938 275.572,196.481 217.100,244.043 185.461 C 246.675 183.710,248.828 182.174,248.828 182.047 C 248.828 179.779,244.822 161.121,244.193 160.457 C 244.044 160.301,242.082 161.278,239.832 162.630 M115.382 200.000 C 115.382 202.471,115.446 203.481,115.523 202.246 C 115.601 201.011,115.601 198.989,115.523 197.754 C 115.446 196.519,115.382 197.529,115.382 200.000 M219.120 307.715 L 217.773 309.180 219.238 307.834 C 220.602 306.581,220.883 306.250,220.584 306.250 C 220.519 306.250,219.860 306.909,219.120 307.715 M215.405 311.426 L 214.258 312.695 215.527 311.548 C 216.226 310.917,216.797 310.346,216.797 310.278 C 216.797 309.977,216.475 310.242,215.405 311.426 M232.801 324.902 L 230.273 327.539 232.910 325.011 C 234.360 323.621,235.547 322.434,235.547 322.375 C 235.547 322.087,235.149 322.453,232.801 324.902 " stroke="none" fill="#74b874" fill-rule="evenodd"></path></g></svg>