<?xml version="1.0" encoding="UTF-8"?>
<svg xmlns="http://www.w3.org/2000/svg" xmlns:xlink="http://www.w3.org/1999/xlink" width="50pt" height="50pt" viewBox="0 0 50 50" version="1.1">
<g id="surface1">
<path style=" stroke:none;fill-rule:nonzero;fill:rgb(3.529412%,37.647059%,49.019608%);fill-opacity:1;" d="M 33.054688 38.164062 L 43.546875 48.660156 C 44.957031 50.066406 47.246094 50.066406 48.660156 48.660156 C 50.066406 47.246094 50.066406 44.957031 48.660156 43.546875 L 38.164062 33.054688 Z M 33.054688 38.164062 "/>
<path style=" stroke:none;fill-rule:nonzero;fill:rgb(1.568627%,18.823529%,24.313725%);fill-opacity:1;" d="M 21.554688 0 L 19.613281 21.53125 L 21.554688 43.117188 C 33.445312 43.117188 43.117188 33.445312 43.117188 21.554688 C 43.117188 9.671875 33.445312 0 21.554688 0 Z M 21.554688 0 "/>
<path style=" stroke:none;fill-rule:nonzero;fill:rgb(3.529412%,37.647059%,49.019608%);fill-opacity:1;" d="M 0 21.554688 C 0 33.445312 9.671875 43.117188 21.554688 43.117188 L 21.554688 0 C 9.671875 0 0 9.671875 0 21.554688 Z M 0 21.554688 "/>
<path style=" stroke:none;fill-rule:nonzero;fill:rgb(80.392157%,88.235294%,90.196078%);fill-opacity:1;" d="M 38.382812 21.554688 C 38.382812 12.277344 30.832031 4.734375 21.554688 4.734375 L 19.613281 21.53125 L 21.554688 38.382812 C 30.832031 38.382812 38.382812 30.832031 38.382812 21.554688 Z M 38.382812 21.554688 "/>
<path style=" stroke:none;fill-rule:nonzero;fill:rgb(92.156863%,92.156863%,94.117647%);fill-opacity:1;" d="M 21.554688 4.734375 C 12.277344 4.734375 4.734375 12.277344 4.734375 21.554688 C 4.734375 30.832031 12.277344 38.382812 21.554688 38.382812 Z M 21.554688 4.734375 "/>
<path style=" stroke:none;fill-rule:nonzero;fill:rgb(92.156863%,92.156863%,94.117647%);fill-opacity:1;" d="M 35.46875 21.554688 C 35.46875 13.886719 29.226562 7.644531 21.554688 7.644531 L 19.613281 21.53125 L 21.554688 35.46875 C 29.226562 35.46875 35.46875 29.226562 35.46875 21.554688 Z M 35.46875 21.554688 "/>
<path style=" stroke:none;fill-rule:nonzero;fill:rgb(100%,96.078431%,96.078431%);fill-opacity:1;" d="M 21.554688 7.644531 C 13.886719 7.644531 7.644531 13.886719 7.644531 21.554688 C 7.644531 29.226562 13.886719 35.46875 21.554688 35.46875 Z M 21.554688 7.644531 "/>
<path style=" stroke:none;fill-rule:nonzero;fill:rgb(0%,60%,52.54902%);fill-opacity:1;" d="M 20.222656 22.691406 L 21.554688 32.554688 C 21.554688 32.554688 28.699219 27.628906 28.699219 21.554688 C 28.699219 20.226562 28.355469 18.949219 27.816406 17.765625 Z M 20.222656 22.691406 "/>
<path style=" stroke:none;fill-rule:nonzero;fill:rgb(0%,80%,46.27451%);fill-opacity:1;" d="M 15.296875 17.765625 C 14.761719 18.949219 14.417969 20.226562 14.417969 21.554688 C 14.417969 27.628906 21.554688 32.554688 21.554688 32.554688 L 21.554688 22.691406 Z M 15.296875 17.765625 "/>
<path style=" stroke:none;fill-rule:nonzero;fill:rgb(0%,80%,46.27451%);fill-opacity:1;" d="M 27.816406 17.765625 C 25.910156 13.5625 21.554688 10.5625 21.554688 10.5625 L 20.222656 17.019531 L 21.554688 24.027344 Z M 27.816406 17.765625 "/>
<path style=" stroke:none;fill-rule:nonzero;fill:rgb(64.705882%,90.980392%,52.941176%);fill-opacity:1;" d="M 21.554688 10.5625 C 21.554688 10.5625 17.207031 13.5625 15.296875 17.765625 L 21.554688 24.027344 Z M 21.554688 10.5625 "/>
</g>
</svg>
